<?xml version="1.0" encoding="utf-8"?>
<!-- Generator: Adobe Illustrator 17.0.0, SVG Export Plug-In . SVG Version: 6.00 Build 0)  -->
<!DOCTYPE svg PUBLIC "-//W3C//DTD SVG 1.1//EN" "http://www.w3.org/Graphics/SVG/1.1/DTD/svg11.dtd">
<svg version="1.1" id="レイヤー_1" xmlns="http://www.w3.org/2000/svg" xmlns:xlink="http://www.w3.org/1999/xlink" x="0px"
	 y="0px" width="201.914px" height="23.21px" viewBox="0 0 201.914 23.21" enable-background="new 0 0 201.914 23.21"
	 xml:space="preserve">
<g>
	<path fill="#FF8C00" d="M4.225,20.858L0,18.386C2.064,14.45,3.215,9.025,3.863,3.72l4.346,0.816
		C7.537,10.297,6.457,16.274,4.225,20.858z M13.824,20.978c-0.768-5.641-2.543-11.137-4.367-16.105L17.4,2.76
		c2.328,4.584,4.922,10.585,6.17,15.865L13.824,20.978z M19.441,5.665C19.01,4.68,18.193,3.432,17.426,2.64l1.607-0.96
		c0.793,0.888,1.607,2.016,2.137,3.072L19.441,5.665z M21.818,4.873c-0.529-1.128-1.273-2.232-2.162-3.265l2.521-1.32
		c0.959,1.08,1.607,1.944,2.207,3.12L21.818,4.873z"/>
	<path fill="#FF8C00" d="M32.832,14.042c-2.855,0-5.568,0.096-7.848,0.288V9.553c5.232-1.152,13.369-1.992,20.16-1.992v7.081
		C41.209,14.234,36.865,14.042,32.832,14.042z"/>
	<path fill="#FF8C00" d="M59.09,14.425c-0.6,3.049-2.041,6.001-5.473,8.257l-3.744-3.408c2.52-0.937,4.031-2.88,4.824-5.232
		c-2.137-0.168-4.129-0.264-5.785-0.264c-0.455,0-0.887,0-1.295,0.023l-0.289-3.745c2.113-0.24,4.992-0.528,8.09-0.792
		c0-0.504-0.025-1.008-0.049-1.512c-1.152,0.048-2.232,0.096-3.24,0.096c-0.768,0-1.512-0.024-2.184-0.072l-1.488-3.553
		c5.52-0.384,11.088-1.776,14.209-3.432l4.367,5.761c-2.398,0.384-4.967,0.696-7.488,0.912c0,0.48,0,0.96,0,1.464
		c3.025-0.216,6.098-0.408,8.738-0.48v7.272C65.617,15.242,62.354,14.786,59.09,14.425z"/>
	<path fill="#FF8C00" d="M85.826,18.482l-7.201-2.137c0.984-1.92,1.68-4.008,1.969-5.736c-1.08,0.144-2.305,0.312-3.457,0.48
		c0.553,3.769,1.201,7.873,1.824,10.945l-3.432,0.552c-0.385-3.168-0.936-7.296-1.488-10.993c-0.816,0.168-1.752,0.336-2.809,0.528
		l-0.721-3.36c0.961-0.096,1.969-0.24,3.025-0.408c-0.24-1.44-0.457-2.712-0.672-3.696l3.408-0.504
		c0.096,1.008,0.24,2.256,0.408,3.625c2.328-0.384,5.088-1.104,7.561-2.041l4.729,3.145C88.201,12.217,87.146,15.41,85.826,18.482z"
		/>
	<path fill="#FF8C00" d="M94.32,22.106l-4.057-2.304c3.24-3.289,4.225-5.449,4.225-13.802c0-0.792,0-1.632-0.023-2.544l3.959,0.168
		C98.111,14.858,97.488,17.209,94.32,22.106z M102.984,21.986l-3.145-1.968c0.072-1.32,0.168-5.713,0.168-9.961
		c0-3.216-0.047-6.36-0.168-7.993l4.248,0.096c-0.191,3.528-0.215,5.712-0.215,7.945c0,0.816,0,1.632,0,2.52
		c2.232-1.368,4.561-3.144,6.527-5.185l3.434,8.593C110.689,18.602,107.137,20.57,102.984,21.986z"/>
	<path fill="#FF8C00" d="M128.09,23.21c-4.176-4.368-8.424-7.417-11.305-9.073c-1.08-0.624-1.633-1.584-1.633-2.52
		c0-0.912,0.529-1.848,1.537-2.448c3.84-2.329,7.152-4.849,10.775-8.425l4.346,3.192c-2.928,2.352-6.553,4.632-9.457,6.288
		c-0.24,0.144-0.385,0.24-0.385,0.336c0,0.096,0.168,0.168,0.48,0.24c3.529,0.696,8.617,2.544,12.602,4.464L128.09,23.21z"/>
	<path fill="#FF8C00" d="M147.098,21.842c-1.32,0.359-2.568,0.552-3.672,0.552c-3.529,0-5.785-1.896-5.785-6.36
		c0-0.048,0-0.12,0-0.168c0.023-1.896,0.168-6.529,0.168-10.705c0-1.152-0.023-2.28-0.049-3.289l4.225,0.096
		c-0.24,3.984-0.455,9.601-0.455,12.169c0,0.36,0.023,0.648,0.023,0.889c0.023,0.888,0.313,1.296,0.816,1.296
		c0.24,0,0.527-0.096,0.84-0.265c2.713-1.464,5.473-4.704,7.297-9.457l5.809,8.905C154.01,18.217,149.977,21.074,147.098,21.842z
		 M147.289,6.384c-0.336-1.032-1.104-2.592-1.775-3.456l1.656-0.768c0.695,0.96,1.463,2.352,1.895,3.504L147.289,6.384z
		 M149.738,5.833c-0.434-1.224-1.152-2.568-1.922-3.672l2.641-1.104c0.84,1.152,1.441,2.304,1.969,3.552L149.738,5.833z"/>
	<path fill="#FF8C00" d="M177.529,15.026c-0.646-0.505-1.031-0.984-1.703-1.776c0.023,0.264,0.023,0.528,0.023,0.768
		c0,5.521-3.264,8.545-9.793,8.545c-5.305,0-7.512-3.313-7.512-7.2c0-2.713,1.057-5.665,2.855-7.969
		c-1.176,0.24-1.871,0.288-2.951,0.384l-0.361-3.984c0.289,0.024,0.625,0.024,0.961,0.024c1.729,0,3.84-0.216,5.592-0.648
		l1.633,3.24c-2.977,2.496-4.248,5.521-4.248,7.873c0,2.184,1.104,3.792,2.977,3.792c2.375,0,3.959-2.208,3.959-5.761
		c0-2.088-0.551-4.656-1.824-7.513l6.313-2.52c1.465,2.136,4.346,4.248,7.225,5.472L177.529,15.026z M176.594,5.376
		c-0.432-0.984-1.248-2.232-2.016-3.024l1.607-0.96c0.793,0.888,1.609,2.016,2.137,3.072L176.594,5.376z M178.971,4.584
		c-0.529-1.128-1.271-2.232-2.16-3.265L179.33,0c0.961,1.08,1.609,1.944,2.209,3.12L178.971,4.584z"/>
	<path fill="#FF8C00" d="M199.514,11.209c0.432,0.816,0.912,1.68,1.441,2.569l-6.193,2.616c-0.84-1.225-1.68-2.785-2.447-4.561
		c-3.217,0.216-6.506,0.36-9.266,0.384l-0.457-3.312c2.354,0,5.281-0.264,8.258-0.696c-0.145-0.384-0.289-0.768-0.408-1.152
		c-2.328,0.192-4.68,0.312-6.938,0.384l-0.432-3.144c2.113-0.048,4.225-0.216,6.289-0.504c-0.168-0.528-0.336-1.056-0.48-1.584
		l7.057-1.104c0.096,0.432,0.193,0.888,0.289,1.32c1.08-0.288,2.111-0.624,3.096-0.96l0.863,4.177
		c-0.912,0.216-1.871,0.408-2.832,0.576c0.072,0.264,0.168,0.504,0.264,0.768c1.369-0.312,2.641-0.624,3.721-0.96l0.576,4.873
		C201.17,10.993,200.354,11.113,199.514,11.209z M196.441,22.754c-6.119-0.24-11.328-2.784-13.225-6.48l2.209-2.881
		c1.727,2.232,6.672,3.889,12.6,3.889L196.441,22.754z"/>
</g>
</svg>
